<?xml version="1.0" encoding="utf-8"?>
<!-- Generator: Adobe Illustrator 23.0.6, SVG Export Plug-In . SVG Version: 6.00 Build 0)  -->
<svg version="1.1" id="Layer_1" xmlns="http://www.w3.org/2000/svg" xmlns:xlink="http://www.w3.org/1999/xlink" x="0px" y="0px"
	 viewBox="0 0 301.4 464" style="enable-background:new 0 0 301.4 464;" xml:space="preserve">
<style type="text/css">
	.st0{fill:#BA003A;}
	.st1{fill:#666666;}
	.st2{fill:#999999;}
	.st3{fill:#E6E6E6;}
	.st4{fill:none;stroke:#000000;stroke-width:22;stroke-linecap:round;stroke-miterlimit:10;}
	.st5{fill:none;stroke:#000000;stroke-width:24;stroke-linecap:round;stroke-miterlimit:10;}
</style>
<title>jam</title>
<g>
	<path class="st0" d="M175.9,449.2c-9.8,0-20.5-0.5-31.7-1.6c-11.3-1.1-22-2-32.4-2.9c-36.6-3.2-68.1-5.9-90.5-12.6l-4.3-1.3
		l-0.3-4.5c-2.1-29-3.6-58.4-4.6-87.5c-2.8-86.4-0.6-173.9,6.7-260.3l0.8-10.1l8.8,5c13.8,7.8,28.5,14.2,43.5,19
		c32,0.1,56.8,3.2,78.7,5.9c8.8,1.1,17.2,2.2,25.1,2.9c6.5,0.6,12.3,0.9,17.9,0.9c24.1,0,39-5.4,61.6-13.7
		c6.3-2.3,13.4-4.9,21.3-7.6l8.4-2.8l6,332.6l-3.8,1.8c-5.6,2.6-11,6-16.7,9.7C251.5,434.1,227.8,449.2,175.9,449.2z"/>
	<path d="M25.2,79.1c10.6,6,26,13.7,45.7,19.8c45.2,0,76.5,6.2,104.3,8.8c6.8,0.6,12.9,0.9,18.5,0.9c32.4,0,49.4-9.6,85-21.6
		c1.9,106.5,3.8,213,5.8,319.5c-25,11.7-42.9,36.1-108.6,36.1c-9.3,0-19.6-0.5-31.1-1.6c-51.4-4.9-93.9-6.9-121.6-15.3
		c-2-28.3-3.6-57.4-4.6-87.2C15.5,246.2,18.5,159.4,25.2,79.1 M14,57.7L12.3,78C5,164.6,2.7,252.4,5.6,339c1,29.1,2.5,58.6,4.6,87.7
		l0.6,8.9l8.6,2.6c23,6.9,54.9,9.7,91.8,12.9c10.4,0.9,21.2,1.8,32.4,2.9c11.4,1.1,22.3,1.6,32.3,1.6c53.8,0,78.4-15.6,98.2-28.1
		c5.5-3.5,10.8-6.8,16-9.3l7.6-3.6l-0.2-8.4l-2.9-159.8l-2.9-159.8L291.4,69l-16.8,5.7c-8,2.7-15.2,5.3-21.5,7.6
		c-21.9,8-36.4,13.3-59.4,13.3c-5.4,0-11-0.3-17.3-0.9c-7.8-0.7-16.1-1.8-24.9-2.9c-21.9-2.7-46.6-5.8-78.5-6
		c-14.3-4.6-28.2-10.7-41.3-18.1L14,57.7L14,57.7z"/>
</g>
<g>
	<path class="st1" d="M184.8,99.9c-12.4,0-26.4-0.5-44.1-1.2c-15.9-0.6-33.9-1.3-56.6-1.9c-25.5-0.6-75.2-15-75.2-39.3
		c0-39.4,117.7-41.7,141.3-41.7l0.7,0c51.5,0,125.8,14.6,140.8,32.8c3.3,4,3.5,7.7,3.1,10.1c-4.8,25.4-60,36.5-62.4,36.9
		C217,98.7,203.2,99.9,184.8,99.9z"/>
	<path d="M150.9,21.3c61.3,0,141.6,19.8,138.5,36.4c-3.1,16.5-37.6,28.6-58,32.6c-15.9,3.1-29.6,4.1-46.5,4.1
		c-23.1,0-52.2-1.9-100.5-3.1c-25.9-0.6-69.9-15-69.9-33.8c0-25.7,73.8-36.1,135.8-36.2C150.4,21.3,150.7,21.3,150.9,21.3
		 M150.9,10.3v11V10.3l-0.7,0c-34.7,0.1-68.8,3.3-93.5,8.8c-14.9,3.3-26.8,7.5-35.3,12.4c-14.9,8.6-18,18.9-18,26
		c0,9.3,5.5,22.7,31.9,33.8C50.4,97.8,69,101.9,84,102.3c22.6,0.6,40.6,1.3,56.5,1.9c17.8,0.7,31.8,1.2,44.3,1.2
		c18.8,0,32.9-1.3,48.7-4.3c6.3-1.2,61.3-12.8,66.7-41.3c0.7-3.5,0.5-9-4.2-14.6c-9.7-11.7-37.2-20-58.6-24.8
		C209.2,14,177.6,10.3,150.9,10.3L150.9,10.3z"/>
</g>
<g>
	<path class="st2" d="M284,49.3c0,5.1-61,20.9-134,20.9S17.8,51.7,17.8,46.6s55.4-25.3,128.4-25.3S284,44.2,284,49.3z"/>
</g>
<g>
	<path class="st3" d="M283.6,359.5c-37.6,4-85.7,6.2-136.8,2.8c-49.9-3.3-93.6-11-129.8-19.7c1.1-58.7-2.1-117.8,2.3-176.1
		c33.6,8.1,79,15.4,131.3,15.4c51.5,0,127.3-24.4,128.6-15.1C279.8,231,283.1,295.2,283.6,359.5z"/>
</g>
<path class="st4" d="M34.1,200.1c7.1,2.8,17.2,4.7,30.8,8.1c29.7,7.6,50.6-20.3,34.3-4.9c1.8,21.8,7.9,44.6-6.7,86.6
	c-0.7,2.1-13,29.7-37.1,26.7c-17.7-2.2-2.5-31.4-2.3-32.4"/>
<path class="st4" d="M118.9,300.2c20.2-71.7,46.6-105.7,52-95.6c9.2,17,24.6,60.8,17.3,114.6"/>
<line class="st5" x1="130.9" y1="270.7" x2="186.8" y2="270.7"/>
<path class="st4" d="M211.5,315.7c20.8-78.1,21.5-113.4,24.4-108.3c3.7,6.7,3.7,38,12.1,40.1c7,1.8,27.9-24.8,28.6-39.5
	c0.2-5.6,1.2,21.7,7.4,97.5"/>
</svg>
