<?xml version="1.0" encoding="utf-8"?>
<!-- Generator: Adobe Illustrator 23.0.6, SVG Export Plug-In . SVG Version: 6.00 Build 0)  -->
<svg version="1.1" id="Layer_1" xmlns="http://www.w3.org/2000/svg" xmlns:xlink="http://www.w3.org/1999/xlink" x="0px" y="0px"
	 viewBox="0 0 100 100" style="enable-background:new 0 0 100 100;" xml:space="preserve">
<path d="M97.73,28.9L51.39,52.03c-0.89,0.37-1.89,0.37-2.78,0L2.27,28.9C0.9,28.33,0,26.99,0,25.51v0c0-2.6,2.64-4.37,5.05-3.38
	l43.56,22c0.89,0.37,1.89,0.37,2.78,0l43.56-22c2.41-0.99,5.05,0.78,5.05,3.38v0C100,26.99,99.1,28.33,97.73,28.9z"/>
<path d="M97.73,58.83L51.39,81.97c-0.89,0.37-1.89,0.37-2.78,0L2.27,58.83C0.9,58.27,0,56.93,0,55.45v0c0-2.6,2.64-4.37,5.05-3.38
	l43.56,22c0.89,0.37,1.89,0.37,2.78,0l43.56-22c2.41-0.99,5.05,0.78,5.05,3.38v0C100,56.93,99.1,58.27,97.73,58.83z"/>
</svg>
