<svg id="github-icon" class="svg-icon" xmlns="http://www.w3.org/2000/svg" viewBox="0 0 512 512">
    <g id="exlink">
        <path d="M511.77,177.13c0,6.79,0,12.27,0,15.67a32.32,32.32,0,0,1-64.53,1.34q-.06-41.83-.11-83.66l-75.08,75.08L282.5,275.11c-30.21,30.2-73.75,73.69-105.82,105.69-11.4,8.91-26.59,10.23-38,3.42-13.44-8-15.14-23.32-15.29-24.92-1.51-16,9.3-26.4,10.58-27.59,13.22-12.78,23.78-23.25,30.79-30.24,19.75-19.71,20.24-20.82,35.47-35.7,10.48-10.23,16.85-16.16,26.65-26.19,2.58-2.65,6.7-6.91,12.79-13l10.84-10.84,4.64-4.64,5.94-5.94,10.06-10.06L289.24,177l9.19-9.19,22.26-22.26,80.73-80.73c-30.41-.44-52.51-.27-68.26,0-12.32.21-25.13.56-34.72-8.2-7-6.43-9.44-15.11-10.39-20.88-.14-2-.91-16.61,10.31-27A33.16,33.16,0,0,1,317.42.13H462.71c3-.13,7.26-.21,12.39,0,7.45.3,11.18.52,15,1.81a32.63,32.63,0,0,1,15.5,11.57,33,33,0,0,1,6.13,20.39V134.8c.21,8.22.24,14.87.23,19.3C512,162.4,511.84,166.58,511.77,177.13Z" />
        <path d="M383.11,321.33v94.59a32.32,32.32,0,0,1-32.33,32.32H97a32.32,32.32,0,0,1-32.33-32.32V162.1A32.32,32.32,0,0,1,97,129.78h94.58a32.33,32.33,0,0,0,32.33-32.32h0a32.33,32.33,0,0,0-32.33-32.32H32.32A32.32,32.32,0,0,0,0,97.46V480.57a32.32,32.32,0,0,0,32.32,32.32H415.43a32.32,32.32,0,0,0,32.32-32.32V321.33A32.32,32.32,0,0,0,415.43,289h0A32.32,32.32,0,0,0,383.11,321.33Z" />

    </g>
</svg>