<svg id="github-icon" class="svg-icon" xmlns="http://www.w3.org/2000/svg" viewBox="0 0 512 512">

    <g id="github">
        <path d="M367.24,294.38c-17.98,18.5-40.13,23.77-69.01,25.26c14.32,6.29,24.32,20.59,24.32,37.23v98.54h-116.9v-75.38
	c-9.55,3.5-28.88,8.92-51.49,3.48c-10.52-2.53-26.91-6.46-36-20.12c-6.02-9.05-2.85-13.36-10.45-27.1
	c-8.37-15.14-18.06-20.47-16.26-23.61c1.9-3.32,15.37-2.14,25.94,5.03c16.09,10.92,11.43,26.23,27.09,36.39
	c9.47,6.13,19.72,6.17,27.87,6.19c15.3,0.04,27.12-5.11,33.64-8.64c1.8-14.13,10.87-25.99,23.33-31.72
	c-34.28-1.03-59.6-5.66-77.87-26.8c-21.6-25-25.69-64.23-12.37-93.59c2.24-4.94,4.9-9.43,7.91-13.53
	c-6.31-6.44-10.59-26.42-6.64-44.11c1.25-5.58,3.12-10.05,4.65-13.16c4.04,0.69,9.76,1.81,16.52,3.61
	c1.79,0.48,8.35,2.26,14.71,4.65c6.12,2.3,15.4,6.41,26.36,13.87c24.49-6.85,48.13-7.07,57.64-7.16c5.6-0.05,33.36-0.31,62.11,7.62
	c11.25-7.75,20.79-11.98,27.05-14.33c6.36-2.39,12.91-4.17,14.71-4.65c6.75-1.8,12.47-2.92,16.51-3.61
	c1.53,3.11,3.4,7.58,4.65,13.16c3.86,17.28-0.13,36.75-6.2,43.64c4.16,5.45,7.59,11.6,10.07,18.56
	C400.13,234.96,388.96,272.03,367.24,294.38z" />
        <path d="M447.36,32.32v382.71c0,17.85-14.47,32.32-32.32,32.32H96.97c-17.85,0-32.32-14.47-32.32-32.32V96.97
	c0-17.85,14.47-32.32,32.32-32.32h382.71c17.85,0,32.32-14.47,32.32-32.32v0C512,14.47,497.53,0,479.68,0H32.32
	C14.47,0,0,14.47,0,32.32v447.36C0,497.53,14.47,512,32.32,512h447.36c17.85,0,32.32-14.47,32.32-32.32V32.32
	C512,14.47,497.53,0,479.68,0h0C461.83,0,447.36,14.47,447.36,32.32z" />
    </g>
</svg>