<svg id="Layer_1" data-name="Layer 1" xmlns="http://www.w3.org/2000/svg" xmlns:xlink="http://www.w3.org/1999/xlink" viewBox="0 0 301.41 464.01"><defs><style>.cls-1{fill:#ba003a;}.cls-2{fill:#800029;}.cls-3{fill:#fff;opacity:0.21;}.cls-4{fill:#ff295c;}.cls-5{fill:#e6e6e6;}.cls-6{fill:#999;}.cls-7{fill:#ccc;}.cls-8{fill:#666;}.cls-9{fill:#333;}.cls-10{fill:#85002b;}.cls-11{fill:#6e0026;}.cls-12{fill:#730025;}.cls-13{fill:url(#linear-gradient);}</style><linearGradient id="linear-gradient" x1="131.09" y1="389.27" x2="137.7" y2="389.42" gradientUnits="userSpaceOnUse"><stop offset="0.41" stop-color="#93002c"/><stop offset="0.41" stop-color="#8a002a"/><stop offset="0.42" stop-color="#730025"/></linearGradient></defs><title>jam</title><path d="M400,435.13a8.61,8.61,0,0,1-1.9,3c-7.63,8.13-22.55,17.68-22.55,17.68-2.18,1.4-5.59,3.6-9.81,6.39-7.08,3.22-12.18,5.13-15.22,6.19-.57.2-1.61.58-3,1-2.88.9-5.59,1.58-10.67,2.9-22.13,5.79-23.91,6.9-33,8.4-1,.17-7.17,1.17-14.72,1.72-13.67,1-22.46-.17-40.89-2.11-29.49-3.1-36.5-3.21-54.58-5.42l-23-2.84c-3.05-.38-6.1-.8-9.16-1.14-12.09-1.35-14.64-1-20.26-2.73-3.27-1-1.83-.93-9-3.61s-10.27-3.35-13.55-5.94a24.4,24.4,0,0,1-5-4.77,15.89,15.89,0,0,0-1.81-2.19,17.71,17.71,0,0,0-2-1.73c-2.46-2.1-2.4-6.39-2.39-6.92,0-3.5,1.79-4.25,1-6.71-.51-1.65-1.39-1.62-1.73-3.47-.3-1.55.39-2.62-.34-4.14-.27-.57-.4-.52-.71-1.16a6.72,6.72,0,0,1-.58-3.23c0-1.71-.06-4.15-.25-7.35a36.06,36.06,0,0,1-1.23-6.2,51.07,51.07,0,0,1-.2-6.51c0-.57-.11-3.54-.32-9.49-.41-11.86-1.47-13.84-1.61-24.19-.07-5.63.18-9.84.13-16.84,0-2.41-.06-3.72,0-6.26a46.81,46.81,0,0,0,.06-4.9c-.19-3-.68-3-.77-5.55-.08-2.25.3-2.42.32-5.74,0-1,0-1.51-.13-3.87-.13-3.06-.23-5.8-.25-6.58-.13-4.29.37-4.22.75-11.92.2-4.22.09-5.19.44-8.45.28-2.72.5-3.36.74-5.57a56.7,56.7,0,0,0,.19-9.68c-.4-8.72.35-9.67,0-29.09-.07-4.25-.21-9.79.25-17.54.13-2.26.15-1.91.27-4,.78-13.1-.6-15.78.51-24.58.45-3.53.72-3.48,1.26-8,.65-5.34.73-9.18.81-11.77.29-9,.86-9.35,1.61-21.55.47-7.52.6-13.13.71-18.2.44-19.23-.5-21.4.2-34.13,0-.8.31-5.7.38-12.19.09-8.22-.3-4.56-.25-11a35.74,35.74,0,0,0-.91-8A7.54,7.54,0,0,0,106,81.26c-.82-.82-1.38-.88-2.38-1.81a10.1,10.1,0,0,1-2.2-3.22c-1.16-2.44-3-6.23-1.68-10.33a8.11,8.11,0,0,1,2.71-4.25c.91-.68,1.15-.47,1.87-1.17.32-.3.81-.86,2.13-4.58,0,0,.28-.78.65-2,.57-1.9.63-2.48.39-3s-.53-.47-.68-.95c-.25-.83.38-1.69,1.13-2.73a6.56,6.56,0,0,1,1.8-1.92c.85-.55,1.24-.45,2.91-1.24.6-.28.93-.48,1.35-.71,2.12-1.15,2.86-1.15,5.78-2.46,2.06-.92,2.18-1.14,3.77-1.73.47-.17.71-.25,2.73-.9l3.2-1c4.67-1.52,5.56-2.25,9.94-3.61,2.55-.79,2.78-.71,3.82-1.26,1.52-.79,2.3-1.63,4.33-2.39a15.12,15.12,0,0,1,1.67-.51A62.58,62.58,0,0,0,157,26.68c4.3-1.68,11.07-3.09,16-4.11a176.37,176.37,0,0,1,20.74-3.18c13.32-1.19,11.89-.4,30.46-.07,10.4.19,18,.32,21.42.2a15.7,15.7,0,0,1,6.38.71,24.37,24.37,0,0,0,2.44.88,15.85,15.85,0,0,0,4.79.47c8-.16,8.56.15,11.87-.39,1.78-.28,1.47-.35,3.74-.77a71.32,71.32,0,0,1,12.32-1.16,89,89,0,0,1,12.88.75c4,.53,4.71.9,9.63,1.47,4.11.47,5,.37,8,.79a71.35,71.35,0,0,1,9.63,2.15c14.06,3.78,23.81,5.68,27.37,8.34a20.5,20.5,0,0,0,4.05,2.43c1.13.51,1.27.45,2.71,1,2.34,1,2.45,1.31,5,2.51s2.94,1.07,4.58,2.07a18.37,18.37,0,0,1,2.78,2.06c4.21,3.64,6.22,3.67,9.87,6.9,1.73,1.54.46.81,6,7.23a30.48,30.48,0,0,1,4.9,7.1,7.91,7.91,0,0,1,.38,1c.38,1.28.19,1.85.14,4.38a10.09,10.09,0,0,1-.39,3.7,6.39,6.39,0,0,0-.31.74c-.26.8-.14,1.13-.46,1.52s-.42.23-.62.49-.31.76,0,1.67a2.23,2.23,0,0,0-.45.49c-.63,1,.07,2-.29,3.55a5.07,5.07,0,0,1-.51,1.22c-1.26,2.47-2.34,3-3.29,4.71-.77,1.37-.94,2.57-1.29,5a23.67,23.67,0,0,0-.26,3.68c.23,1.74.47,3.48.71,5.22,0,.32,0,.93,0,1.68-.28,12.89.61,17.88-.14,28-.16,2.27-.18,1.66-.33,3.69-.26,3.67-.32,7.43.64,22.76.28,4.48.38,5.79.62,7.6.4,3.13.75,4.38,1.21,8,.36,2.85.52,5,.62,6.44.58,8.23-.22,8.95.45,15.48.23,2.29.48,3.7.57,6.53s-.05,4.61-.12,6.25a64.48,64.48,0,0,0,.59,11.42c.14.57.35,1.44.57,2.51,2.88,13.8,1,23.22.39,37-.21,4.55-.36,11.09,0,19.09a14.06,14.06,0,0,1,1,1.94c1.2,3,1,5.57.84,10.58-.1,2.95-.15,4.42-.13,5.36.08,5.63.87,7.48.89,13,0,1.66-.07,1.73-.18,4.77-.22,5.68-.13,9.72-.07,14,.21,13.87,0,17.38.33,27.87.07,2.41.19,6,.58,10.71.27,3.35.43,4.2.64,6.58.66,7.3,0,8.39.39,17.1.24,5.75.35,8.75,1.19,13s1.46,4.94,2,9a100.48,100.48,0,0,1,.33,11.31c0,9.45-.3,4.76-.19,7.61A10.44,10.44,0,0,1,400,435.13Z" transform="translate(-99.33 -18.76)"/><path class="cls-1" d="M378.61,377.05c-1.46,0-3,.07-4.6.19a72.12,72.12,0,0,0-10.72,1.61c0,2.34.08,4.31.13,5.81.2,5.7.34,4,.31,5.5a7.69,7.69,0,0,0,.38,3.28,16,16,0,0,0,.89,1.79c.31.54.51.81.92,1.45s.8,1.25,1.34,2.17a132.66,132.66,0,0,0-8.81,12.54c-2.26,3.77-3.39,5.66-3.55,6.38a5.63,5.63,0,0,1-1.38,2.74,5.51,5.51,0,0,1-.58.51c-2.33,1.72-7.26,6.56-14.62,11.56a106.37,106.37,0,0,1-20.1,10.62,90,90,0,0,1-9.41,3.41c-17.35,5-35.1,2.61-45.29,1.16-5.21-.73-8.94-.76-16.41-.82-4.57,0-6.66.14-9,1.14-2.13.9-3.2,1.92-6.1,2.56a32.18,32.18,0,0,1-4.91.56c-2.59.18-4.57.17-5.06.17-5.27,0-13.31-.14-18.89-.12-6.17,0-8.45.2-11.18.79-3.1.67-7,1.51-7,2.43,0,.21.15.42.45.61l-.87-.06c-7.51-.29-11.8.23-19.23,0-3.39-.1-5.92-.32-7.74-.51-1.12-.12-2.26-.27-3.29-.39-2.48-.31-4.53-.6-6-.81-4.71-1.08-8.5-1.81-11-2.26a78,78,0,0,1-15.58-4.92c-.57-.25-2.25-1-2.32-2.14a4.44,4.44,0,0,1,.81-2.1c.36-.66.48-.72.67-1.13a4.69,4.69,0,0,0,.33-2.61c-.3-2.7-1.22-9.58-1.42-12.87-.18-2.93.26-2.19.09-5.29-.05-1-.32-4.22-2.42-11.81-.56-2-1.37-4.76-2.51-7.93-.27-35.36,0-64.33.29-84.78.69-46.66,1.68-54.34,2.32-100.35.12-8.54.23-18.65,1-32.81,1-19.94,2.22-26.9,3-42.29.51-10.17.87-24.82,0-42.77,14.25,11.59,27.15,16,35.09,18,10.07,2.45,21.14,3.05,27.33,3.38,9.33.51,10.14-.11,20.24.45,7.65.43,10.94,1,27.06,2.92,14.21,1.69,21.31,2.54,24.24,2.75,17.94,1.3,24.44-.06,36.45,1a67.88,67.88,0,0,0,11.24.19c3-.21,3.14-.43,7.35-.8,6.79-.6,7.61-.14,11.13-.78,2.42-.44,2.58-.76,8.93-3,0,0,5.7-2,12.94-4.18s8.79-2.25,12.85-3.48a77.11,77.11,0,0,0,18.6-8.52c-.55,8.83-.77,16.17-.87,21.39-.38,20.12.56,36.5,1.45,51.68,0,.73.29,2.54.31,5A48.2,48.2,0,0,1,374.61,195c-3,13.31,4.13,68-.51,97.29a212.31,212.31,0,0,0-2.53,23.36,113.33,113.33,0,0,0-.31,11.48c.52,12.87,4.06,25.88,5.16,34.32.16,1.22.26,2.07.26,2.07.49,4.21.45,5.71.79,8.14A38,38,0,0,0,378.61,377.05Z" transform="translate(-99.33 -18.76)"/><path class="cls-2" d="M381.33,422.62a4.64,4.64,0,0,1-.58,2.1,3.92,3.92,0,0,1-.91,1.08c-17.72,15.08-25.36,18.78-25.36,18.78A123,123,0,0,1,332,452.52c-2.85.78-4.91,1.25-11,2.94-7.24,2-8.95,2.61-12.53,3.38A94.47,94.47,0,0,1,296,460.59c-5.06.45-5.88.24-26.34.25-3.84,0-7,0-11.49-.23-4.26-.22-6.35-.49-10-.8-8.57-.74-8.74-.27-18.78-.91-2.33-.14-7.56-.6-18-1.51l-10.16-.91c-8.64-.77-13.8-1.23-15.77-1.39-.3-.19-.45-.4-.45-.61,0-.92,3.91-1.76,7-2.43,2.73-.59,5-.77,11.18-.79,5.58,0,13.62.09,18.89.12.49,0,2.47,0,5.06-.17a32.18,32.18,0,0,0,4.91-.56c2.9-.64,4-1.66,6.1-2.56,2.36-1,4.45-1.17,9-1.14,7.47.06,11.2.09,16.41.82,10.19,1.45,27.94,3.81,45.29-1.16a90,90,0,0,0,9.41-3.41,106.37,106.37,0,0,0,20.1-10.62c7.36-5,12.29-9.84,14.62-11.56a5.51,5.51,0,0,0,.58-.51,5.63,5.63,0,0,0,1.38-2.74c.16-.72,1.29-2.61,3.55-6.38a132.66,132.66,0,0,1,8.81-12.54c-.54-.92-1-1.66-1.34-2.17s-.61-.91-.92-1.45a16,16,0,0,1-.89-1.79,7.69,7.69,0,0,1-.38-3.28c0-1.47-.11.2-.31-5.5-.05-1.5-.1-3.47-.13-5.81A72.12,72.12,0,0,1,374,377.24c1.59-.12,3.14-.18,4.6-.19-.07,1.61-.16,3.11-.19,6.08,0,3.68-.06,7.31.1,11a75.75,75.75,0,0,0,.91,9.16q.06.36.12.69c0,.11.07.36.13.74,0,.17.07.35.1.55.07.43.16.95.26,1.54,0,.27.08.55.12.84s0,.31.07.48.09.59.13.9.11.82.16,1.26c.4,3.28.56,5.95.63,7.62A24.41,24.41,0,0,1,381.33,422.62Z" transform="translate(-99.33 -18.76)"/><path class="cls-3" d="M380.14,407.45a1,1,0,0,1,0,.17c0-.29-.09-.57-.12-.84C380.07,407,380.1,407.22,380.14,407.45Z" transform="translate(-99.33 -18.76)"/><path class="cls-4" d="M119.9,420c-1.15-6-2.22-10.65-3-13.84a52.16,52.16,0,0,1-2-11.52,55.71,55.71,0,0,1,.21-6c.39-6.5.31-11.36.19-18.68,0-3.37-.17-7.85-.47-13.16.1-108.86,1.92-155,3.76-176.14.4-4.62,2.17-23.78,2.81-49.73.36-14.59.24-26.41.1-33.68a94.61,94.61,0,0,0,29.2,16.3,106.43,106.43,0,0,0,30.7,5.28c8.69.39,8.24-.54,18.46-.27,6.09.16,9.43.58,31.36,3.42s23.44,3.06,27.5,3.24c9.94.43,9.72-.42,23.52.07,11.27.4,13.24,1,20.91.63,7.11-.37,13.81-1.36,13.93-.7.05.3-1.33.8-2.71,1.25A67.23,67.23,0,0,1,298.26,130c-8.93.4-17.73,2.36-26.61,3.35-20.93,2.35-21.58,4.8-47,8.07a199.31,199.31,0,0,1-23.77,1.74c-3.42,0-7.57.08-13.06-.29-6.08-.41-16.05-.66-36-1.17a3.58,3.58,0,0,0-2.81.88c-.86,1-.51,2.62-.38,3.19.83,4,.43,8.08.87,12.1.14,1.31.09,4.71,0,11.51-.13,8.63-.36,10.07-1.17,11.71a15.1,15.1,0,0,1-6.62,6.49c-6,3.39-9.5,51.53-7.31,185.51-.29,6.94-.47,12.57-.58,16.46,0,1.22-.12,4.21-.29,8.22a80.06,80.06,0,0,1-1.84,14.91c-.52,2.41-1.08,4.41-2.81,5.9C125.82,421.2,121.24,420.31,119.9,420Z" transform="translate(-99.33 -18.76)"/><path class="cls-5" d="M378.61,377.05a47,47,0,0,0-8.37.41c-1.15.16-2.31.38-2.93.49-3.33.61-5.72,1.23-6.05,1.31-8.46,2.11-28.27,2.45-28.27,2.45-24,.77-26.14-.38-42.09.24a102.29,102.29,0,0,1-15.29-.23c-3-.28-4.27-.56-10.2-1.15-3.59-.35-4.78-.42-9.13-.84-4.88-.46-7.15-.75-9.31-1-7.31-.74-12.63-.72-17.37-.81-5.49-.1-12.53-.62-26.62-1.64,0,0-18.71-1.37-34.74-3.54a101.52,101.52,0,0,1-13.11-2.56c-2.84-.76-3.47-1.06-8-2.47-3.08-.95-9.85-3.05-16.94-4.74-3.78-.9-9-2-15.29-2.9,0-7.49,0-17.9.08-30.62,0-2.21,0-4.74,0-6,0-6.8.09-18.29.24-32.74.06-5.92.16-15.67.36-28.16.13-8.35.25-14.24.34-18.39.07-2.84.15-6.56.28-11.52s.3-11,.6-19c.06-1.75.21-5.63.44-10.63q.4-8.91,1-19a154.84,154.84,0,0,1,23.52,3.49c1.19.29,6.3,1.5,13.08,2.93,1.73.36,3.73.75,6.27,1.18,6.34,1.08,7.62,1,16.84,2.52s9.22,1.75,14.85,2.61a208.25,208.25,0,0,0,23.81,2.14c5.61.24,2.54-.08,21.58.14,7.32.09,11.61.17,18.1-.2,4.86-.28,4.08-.42,9.87-.77,8.32-.51,10.53-.24,18-.89,2.94-.26,5.24-.46,8.38-1s3.83-.76,6.68-1.11c3-.38,3.18-.19,7.45-.59,3.64-.33,6.46-.74,7.64-.91,2.36-.36,4.26-.71,7-1.21s3-.6,4.55-.88c3.72-.67,5.64-.81,8.71-1.21,2.82-.36,1.48-.28,11.42-2,3.58-.61,7.06-1.7,10.64-2.32a8.16,8.16,0,0,0,2.76-1,9.12,9.12,0,0,0,1.45-1.06,11.13,11.13,0,0,1,5.22-2,15.33,15.33,0,0,1,4.54-.32,14.9,14.9,0,0,1,5.39,1.52c.43,6.17,1.09,16.29,1.61,28.77,0,.25.14,1.38.12,2.89,0,1.08-.1,1.89-.12,2.08-.5,5.06-1.61,81.18-1.23,105.16.1,5.78.27,7.82.68,9.29a18.75,18.75,0,0,1,.75,4.61c0,.52,0,.9,0,1C377.76,338.72,378,349.15,378.61,377.05Z" transform="translate(-99.33 -18.76)"/><path d="M208.55,230.1c0,4.76,0,11.69,0,20.06-.07,15.48-.1,23.22-.32,25.74-1.89,21.58-8.73,35.85-10.91,40.13a82.51,82.51,0,0,1-5.29,9c-2.95,4.37-7.76,11.37-15.61,16.61a40.76,40.76,0,0,1-5.88,3.27,29.77,29.77,0,0,1-8.56,2.64,27.78,27.78,0,0,1-4.21.24,67.8,67.8,0,0,1-8.13,0,19.93,19.93,0,0,1-2.76-.31,19.51,19.51,0,0,1-4.61-1.44,15.4,15.4,0,0,1-6-5.14c-2.07-3.13-2.12-6.19-2.19-10.79a52.08,52.08,0,0,1,1.41-11.76c1.06-5.47,1.59-8.2,3-10.86a28.71,28.71,0,0,1,7.21-8.45,37.16,37.16,0,0,1,6.27-4.16,19.88,19.88,0,0,1,2.72-1.13,6.44,6.44,0,0,1,2.6-.54,4.52,4.52,0,0,1,2.64,1.18,5.27,5.27,0,0,1,1.09,1.65,4.42,4.42,0,0,1,.21.56,7,7,0,0,1,0,3.25c-.76,3.23-1,6.56-1.54,9.83-1.13,6.53-.7,7.95-.19,8.94a7.88,7.88,0,0,0,3.1,3.16c.5.28,1.67.85,5.8.91a46.67,46.67,0,0,0,6.13-.33,87.31,87.31,0,0,0,4.91-12.7c2.71-9.06,3.26-16.26,3.8-24,.24-3.37.35-6.28.32-25.42,0-7,0-12.82,0-16.8-4.08.08-20.26.35-34.07-.88A72.65,72.65,0,0,1,135.45,240a60.23,60.23,0,0,1-8.84-3.29c-4.75-2.12-7.12-3.19-7.8-4.58-2.29-4.68,3.28-12.61,7.35-16.52l.13-.12a26,26,0,0,1,12.26-6.71c4.12,1.71,7.62,3.1,10.26,4.13a74.55,74.55,0,0,0,9,3.16,54.11,54.11,0,0,0,8.32,1.42c9.87,1,21.9,1.14,25.55,1.16,7.68-7.25,15.08-11.33,18.41-9.26a5.77,5.77,0,0,1,2,2.23c.57,1.24.58,2.72-1.23,8.45-.52,1.64-1,3.11-1.48,4.38Z" transform="translate(-99.33 -18.76)"/><path d="M377.7,214.92h0a45.19,45.19,0,0,0-5.26,3.38,34.86,34.86,0,0,0-6.88,6.41,30.91,30.91,0,0,0-4.81,9.15c-1.88,5.07-1.42,6.66-3.34,12.2a55.56,55.56,0,0,1-3.05,7.11,16.57,16.57,0,0,1-2.13-2.7c-1.39-2.23-1.54-3.7-2.95-6.81-.73-1.62-.66-1.15-1.81-3.49a63.83,63.83,0,0,1-3.66-9.06,27.62,27.62,0,0,1-1-3.54,48.55,48.55,0,0,1-.43-7.83,5.37,5.37,0,0,0-.49-3,4.61,4.61,0,0,0-2.11-1.87c-3-1.36-7,1.13-9.82,2.9a30.09,30.09,0,0,0-6.08,5,28.37,28.37,0,0,0-4.63,6.6,21.68,21.68,0,0,0-1.49,3.64c-1.71,5.79-.19,10.94-.64,15.1-.15,1.32-.36,2.68-.36,2.68-.17,1.1-.35,1.91-.38,2.22-.17,1.69-.56,3.21-1.1,6.32-.75,4.34-1,7-1.52,10.67s-1.78,8.55-4.19,18.21c-1.25,5-1.41,5.42-2.06,8.32-1.6,7.06-1.19,6.9-2.33,11-1.33,4.78-2.59,7.47-3.27,10.58a25.86,25.86,0,0,1-.82,2.74c-.85,2.52-1.16,2.68-1.33,2.68s-.53-.22-.93-1.84c0-2.78.09-5.55.13-8.33,0-1.85.1-4.67.06-8.12-.07-7.08-.41-7-.58-14.71-.11-5.14,0-6.4-.53-9.15-.43-2.16-.75-2.6-1.63-6.45-.67-2.93-.72-3.73-1.37-6.86-.72-3.43-1-4.14-1.79-7.54-.92-4-1.55-7.57-2.81-14.76-.94-5.37-.69-4.33-1.26-7.41-1.85-10.14-2.91-12.91-4.35-15.38-1.23-2.1-2.36-4-4.65-5.32-1.79-1.06-4.17-1.12-8.8-1.26-4.26-.13-6.44-.19-8.78.42a22.92,22.92,0,0,0-6.71,3.09,40.71,40.71,0,0,0-8.25,7.1,74.91,74.91,0,0,0-7.87,9.81c-7.32,10.95-10.9,22-14.86,34.41-1.56,4.89-1.18,4.18-2.59,8.5a235.47,235.47,0,0,1-9.65,25.47,67.33,67.33,0,0,0-3.39,8.65,54.82,54.82,0,0,0-1.9,8.23,39.75,39.75,0,0,0-.2,9.87c.13,1.95.32,3.47,1.49,4.49a5.19,5.19,0,0,0,3.16,1.09,8.29,8.29,0,0,0,3.39-.84,23.14,23.14,0,0,0,3.25-1.55,31.26,31.26,0,0,0,5.88-4.48,27.56,27.56,0,0,0,5.61-7.07,19.93,19.93,0,0,0,1.93-4.68,28,28,0,0,0,.68-6.55c.09-1.77.28-4.31.68-7.41q8,.49,16.64.64c8.11.13,15.85,0,23.17-.39q.6,12.51,1.22,25c.14,5.15.08,9.23,0,12-.09,3.14-.28,7.71,1.84,9.87a6.61,6.61,0,0,0,2.45,1.55,5.75,5.75,0,0,0,2.83.14c4.29-.72,9.29-4.68,9.29-4.68a47.8,47.8,0,0,0,7-6.88,2.48,2.48,0,0,1,0,.75,3,3,0,0,1-.24.7,9.88,9.88,0,0,0-.7,3.26,4.61,4.61,0,0,0,.74,3.26,4.3,4.3,0,0,0,3.13,1.23,7.62,7.62,0,0,0,3.75-.84,29.75,29.75,0,0,0,7.25-4.23,34.06,34.06,0,0,0,5.13-5.09c2.5-3.06,4.48-5.47,5.33-9.07.32-1.38.1-1.3.8-7.58.1-.95.26-2.45.52-4.29a83.4,83.4,0,0,1,3.32-15.19c1-3.13,1-2.36,2.16-5.78a96.66,96.66,0,0,0,2.91-11.24c.47-2.16,1-5.07,1.59-8.55a15.09,15.09,0,0,0,7.24,2.6c7.41.54,13.32-5.19,18-9.73a50,50,0,0,0,6.79-8.14c.07,1.25.1,2.27.11,3s0,1.65,0,2.47c0,.23.05.69.08,1.35,0,.44,0,.8,0,1a4.9,4.9,0,0,1,.26,2.11c-.15,1.4-.85,1.82-1.18,3.65a8.69,8.69,0,0,0-.13,1.77,9,9,0,0,0,.78,3.19c.54,1.41.87,2.89,1.4,4.31a72.31,72.31,0,0,1,2.76,11.66c.2,1.16.14.91,1.47,11.42.25,2,1.08,8.5,1.8,13,.49,3.1.62,3.33.94,5.44a18,18,0,0,0,.38,2c.27,1,.39,1.08.61,2.05a15.86,15.86,0,0,0,.41,1.72,2.23,2.23,0,0,0,.75,1.24,1.93,1.93,0,0,0,.61.28c.31.08.44,0,.7.08a1.32,1.32,0,0,1,.65.43c0-.14.05-.28.07-.42,0-5-.06-9.38-.07-13.19C377.64,278.43,379.28,255.56,377.7,214.92ZM266.9,280.65a32.48,32.48,0,0,1-4.64-.23,85,85,0,0,1-12.5-2,62.27,62.27,0,0,1-6-1.89c1.39-3.07,2.35-5.65,3-7.4,2.53-7.19,2.59-10.14,4.91-15.5.66-1.54,1.37-3,2.29-5.47.45-1.26,1-2.49,1.45-3.76.08-.25.44-1,1.16-2.5.26-.56.39-.82.68-.92.78-.29,1.9.94,2.22,1.29a10.5,10.5,0,0,1,2.13,4.29,58.47,58.47,0,0,1,1.48,5.84c.35,1.58.59,2.78.67,3.18.64,3.19,1,5.4,1.53,8,.64,3.46,1.2,6.94,1.89,10.39.12.65.46,2.32.67,4.57.08.85.13,1.54.15,2Z" transform="translate(-99.33 -18.76)"/><path class="cls-6" d="M384,77a1.32,1.32,0,0,1-.79.06,16.4,16.4,0,0,0-5,.64c-.33.07-1.12.29-2.71.74a26,26,0,0,0-3.8,1.23c-.77.34-.7.39-2.45,1.35-2.32,1.27-2.17,1-3.1,1.61a51.81,51.81,0,0,0-4.07,3.26c-.09.07-1.24,1-2,1.52a26,26,0,0,1-7,3.22c-5.12,1.87-4.12,1.89-7.58,3-2,.67-4.32,1.22-8.87,2.32-4.12,1-4.71,1-6.75,1.68-1.8.55-3.33,1.16-6.32,2.35-6.47,2.58-7.24,3.19-10.13,3.84a28,28,0,0,1-5.71.74c-3,.07-4.28-.42-9.64-1,0,0-2.35-.25-5.2-.45-4.85-.34-8.54-.29-10.77-.26-6.52.08-13.89.1-18,.07-8.37-.08-14.77-.51-16.32-.62-7.44-.51-9.22-1-21.22-2.06-5.2-.47-7.79-.7-11-.91-9.87-.62-18.07-.56-30.07-.48-.65,0-6,0-12.9-.22a77.09,77.09,0,0,1-10-.9,40.55,40.55,0,0,1-7.12-1.59c-3-1-3.4-1.61-5.75-2-.4-.06-2.18-.21-5.74-.52l-1.9-.17-1.81-.19-1.71-.21c-1.49-.21-2.91-1.41-4.45-2.49-2.42-1.69-5.57-3.34-7.42-4.61a5.15,5.15,0,0,1-1.16-1c-.35-.44-.31-.57-.58-.81a3.06,3.06,0,0,0-1.84-.55c-1.25-.14-1.88-.22-2-.22-2-.09-3.86-1.46-5.44-2.58A41.76,41.76,0,0,1,112,77.29c-1.46-1.46-2.09-2.17-2.39-3.29a10.62,10.62,0,0,1-.06-2.35c0-3.1-.23-3.84.22-5.1.3-.83.43-.64.84-1.58,1.36-3.13,0-5.38,1.46-6.59a2.34,2.34,0,0,1,1.08-.48c1.3-.27,1.95.63,3.85,1,.31.06,2.11.38,2.39-.19s-.89-1.6-1.29-2c-.75-.69-1.14-.77-2.36-1.74s-1.26-1.23-1.26-1.39c0-.49.7-.83,2-1.35,2.53-1,4.37-1.43,6.38-2.1,1-.32.93-.35,2.42-.9,3.5-1.29,6.22-2,7.29-2.36,7.43-2.14,11.76-4.77,22-7.48,4.09-1.09,3.46-.69,11.16-2.58,5.68-1.4,7-1.87,10-2.16,1.65-.17,3.3-.23,6.2-.68,1.33-.21,2.49-.44,4.8-.91a57.53,57.53,0,0,0,5.78-1.32c2.34-.73,2-.91,3.67-1.32,2.1-.53,2.53-.22,6.26-.65,2.52-.29,2.52-.45,4.32-.59a31.15,31.15,0,0,1,5.33.08c.85.07,4.12,0,10.67,0,3.56,0,8.14-.08,13.52-.2,2.44.49,5.7,1.07,9.58,1.55,3,.37,5.23.55,6.94.68,6.06.47,7.16.26,13.64.65,3.8.22,3.41.3,10,.77,6.37.46,6.85.4,10.55.68,3.33.25,10.86.85,19.94,2.39.66.11,4,.75,10.83,2,0,0,3.75.7,12.13,2.38,3.05.62,4.39.89,6.29,1.41,3,.82,3.45,1.15,7.32,2.4,1.29.42,6.35,2,11.77,3.3,1.81.42,3.6.92,5.42,1.32a19.08,19.08,0,0,1,3.27.9,17.27,17.27,0,0,1,3.58,2.13c2.16,1.46,3.85,2.41,7.22,4.32,1.69,1,2.53,1.42,3.32,1.8,1.39.67,2.44,1.06,4,2,.6.36,1.08.67,1.38.88a1.8,1.8,0,0,1,0,1.29c-.54,1.35-3.07,1.29-6.51,1.76-4.1.56-7.62,1.79-7.57,2.14,0,.15,1.18.17,3.49.19,1.52,0,2.28,0,2.93,0,4-.16,6-.24,7.7-1,.31-.15.9-.45,1.24-.2s.14,1.29,0,2.16c-.08.4-.08,2.31-.09,6.13C384.67,75.41,384.72,76.61,384,77Z" transform="translate(-99.33 -18.76)"/><path class="cls-7" d="M172.74,71.32a97.63,97.63,0,0,1-16.68-1.38c-3.57-.65-7.28-1.23-8.6-1.52s-1.89-.44-1.89-.44a21.69,21.69,0,0,0-2.34-.59,20.86,20.86,0,0,0-2.23,0,14.77,14.77,0,0,1-3.6-.67l-.94-.32c-1-.34-1.79-.57-1.9-.6-1.38-.43-3.56-1.47-6-2.45a65.1,65.1,0,0,1-7.48-3.46,5.31,5.31,0,0,1-.8-.65,6.47,6.47,0,0,1-1.06-1.67,9,9,0,0,0-3.86-3,1.33,1.33,0,0,1-.78-.64,1,1,0,0,1,0-.66c.22-.68,1.76-1,3.07-.83,1,.12,1.66.49,4.45,2.2l2.33,1.42c2.88,1.87,6.18,3,10.25,4.45a58.32,58.32,0,0,0,8.9,2.63c2.29.45,3.52.25,6.79.85,2.33.44,2.81.69,5.15,1.2a68.8,68.8,0,0,0,8.29,1.21c5.45.52,8.18.79,8.61.69.22,0,1.08-.27,1.42.13a1.08,1.08,0,0,1,.06.93A14,14,0,0,1,172.74,71.32Z" transform="translate(-99.33 -18.76)"/><path class="cls-8" d="M372,79.65A30.49,30.49,0,0,0,367.52,82c-3.73,2.2-4.84,3.65-7.46,5.42-1.8,1.22-4,2.08-8.35,3.8A88.84,88.84,0,0,1,336.65,96c-3.77.8-4.33.62-7,1.48-1.81.58-2.24.88-8.65,3.68a41.33,41.33,0,0,1-6.65,2.58,29.85,29.85,0,0,1-5.87.84,40.06,40.06,0,0,1-8.77-.84c-2.1-.31-5-.47-10.84-.79-8.53-.47-11.3,0-22.06,0,0,0-4.9,0-14.13-.34-20.25-.69-23.36-2.69-39.91-3.41-11-.48-22.1-.14-41-.51a53.15,53.15,0,0,1-12.38-1.42c-4.86-1.19-5.28-2.1-10.07-3.1-6.84-1.42-7.52.12-11.87-1.61a32.51,32.51,0,0,1-8.72-5.3,15,15,0,0,0-5.57-3.64c-1.54-.51-1.43-.13-3.1-.64-2.78-.86-4.67-2.42-7.22-4.52a10.5,10.5,0,0,1-2-1.9c-1.11-1.64-1.2-3.52-1.33-6a13,13,0,0,1,0-2.55c.39-2.68,2-3,1.7-5.13a6,6,0,0,1,0-3,3.25,3.25,0,0,1,.88-1.52,2.67,2.67,0,0,1,1.51-.53c1.07-.08,1.34.43,2.87.8,1.18.28,1.23,0,2.39.33a9.92,9.92,0,0,1,2.4,1c1.61.83,2.41,1.24,3.5,1.85,1.41.79,1.43.51,5.62,2.26a73.27,73.27,0,0,0,7.54,2.78,11.69,11.69,0,0,0,1.89.39c1.29.16,1.84,0,2.9.07a10.52,10.52,0,0,1,2.88.64c3.31,1.07,10.47,2.12,14.59,2.57,3.53.39,8.72.77,9.8.7a7.19,7.19,0,0,1,1.18,0,3.41,3.41,0,0,1,1.15.28c.67.33.67.76,1.29,1.1a2.57,2.57,0,0,0,1.23.26c1.19,0,3.74,1.3,21.54,3.46,14.53,1.77,23,2.8,34.59,3.18,7.46.24,13.51,0,25.61-.39,26.15-.91,39.23-1.36,52.26-3.87,5.1-1,10.49-2.26,19.61-3.48,5.24-.7,8.32-.93,15.68-2.07,9.1-1.4,12.11-2.25,14.13-2.9.44-.14,4.94-1.89,10.51-4.13a36.11,36.11,0,0,1,4.07-1.42,26,26,0,0,1,8.06-.9c1.57,0,2.78.08,3,.64a1,1,0,0,1-.31.88,2,2,0,0,1-.48.6,2,2,0,0,1-.86.4c-1.15.24-6.59.94-9.07,1.51-1.92.45-3.77,1.22-3.71,1.5s1.8,0,5.46,0c3.2,0,2.9.23,4,0a49.92,49.92,0,0,0,5.35-1.1.61.61,0,0,1,.49,0c.44.24.21,1.44.09,2.16-.54,3.25-1.07,6.42-.37,8.58a1.2,1.2,0,0,1,.05.87c-.38.89-2.25.79-3.58.84C377.68,77.37,375.26,78.34,372,79.65Z" transform="translate(-99.33 -18.76)"/><path class="cls-9" d="M316.61,75.37a9.35,9.35,0,0,1-3.26.69c-1,.15-.67.15-2.61.49-4.25.73-7.86,1-12.09,1.84-4,.75-3.14.91-6.39,1.45a85.78,85.78,0,0,1-9.78.87c-1.24.07-3,.14-6.45.27-6,.23-.41,0-9.14,0a18.45,18.45,0,0,1-5-.88c-1-.32-1.43-.53-1.44-.76,0-.57,2.48-1.05,3.64-1.27a26,26,0,0,1,2.8-.39c3.84-.34,5.42-.39,5.42-.39,3.68-.11,7.36-.26,11-.35,6.45-.16,11.33-.44,14.33-.62,5.57-.32,8.35-.48,10.09-.77,1.3-.21,4.15-.74,8.17-1.1l2.06-.16A5.23,5.23,0,0,1,316.61,75.37Z" transform="translate(-99.33 -18.76)"/><path class="cls-10" d="M161.06,131.79A1.86,1.86,0,0,1,160,133a3.73,3.73,0,0,1-1.41.34,2.81,2.81,0,0,1-1.15,0,1.68,1.68,0,0,1-1.26-1.56c.08-.6.7-.95,1.11-1.18a4.16,4.16,0,0,1,1.35-.41c.85-.17,1.27-.25,1.6-.1A1.64,1.64,0,0,1,161.06,131.79Z" transform="translate(-99.33 -18.76)"/><path class="cls-10" d="M136.27,163.57a1.7,1.7,0,0,1-.45,1.35,2.13,2.13,0,0,1-.89.6,1.65,1.65,0,0,1-.81.26,1.59,1.59,0,0,1-1.3-1.22,1.65,1.65,0,0,1,.46-1.33,2.37,2.37,0,0,1,.84-.66c.55-.33.82-.49,1.1-.41A1.75,1.75,0,0,1,136.27,163.57Z" transform="translate(-99.33 -18.76)"/><path class="cls-11" d="M341.73,139.19a1.79,1.79,0,0,1-.7,1.2,1.85,1.85,0,0,1-.9.34c-.38.07-.57.11-.74,0a1.62,1.62,0,0,1-.1-2.74,2,2,0,0,1,.87-.41c.54-.17.81-.26,1-.1A2,2,0,0,1,341.73,139.19Z" transform="translate(-99.33 -18.76)"/><path class="cls-12" d="M367.9,128.92c-.32.91-3.25.36-4.17,1.52a1.62,1.62,0,0,1-.63.51,1.7,1.7,0,0,1-2.3-1.51c.06-.47.46-.74,1.1-1.18a6,6,0,0,1,1.58-.76c.51-.15,2.94-.85,4,.4C367.64,128.07,368,128.53,367.9,128.92Z" transform="translate(-99.33 -18.76)"/><path class="cls-12" d="M136.1,437c0,1.08-1.63,2.12-2.91,1.81-.61-.15-1.4-.69-1.4-1.41s.77-1.05,1.4-1.4a2.23,2.23,0,0,1,1.54-.43A1.72,1.72,0,0,1,136.1,437Z" transform="translate(-99.33 -18.76)"/><circle class="cls-12" cx="59.98" cy="405.97" r="1.27"/><circle class="cls-12" cx="69.98" cy="414.62" r="1.47"/><path class="cls-12" d="M187.35,442.79a1.7,1.7,0,0,1-.89,1.23,3.19,3.19,0,0,1-2,.29,2.26,2.26,0,0,1-1.14-.21,1.64,1.64,0,0,1-.77-1.38,1.58,1.58,0,0,1,.34-1,1.61,1.61,0,0,1,.53-.41,2.71,2.71,0,0,1,1.36-.17,5.56,5.56,0,0,1,1.79.2A1.6,1.6,0,0,1,187.35,442.79Z" transform="translate(-99.33 -18.76)"/><path class="cls-13" d="M137.66,388.4a1.4,1.4,0,0,1,0,.61,1.49,1.49,0,0,1-.87.81,26.21,26.21,0,0,1-3.18,1.66,2.2,2.2,0,0,1-1.09.25,1.67,1.67,0,0,1-1.25-.72,1.75,1.75,0,0,1,0-1.56,2.59,2.59,0,0,1,1-1.13c.62-.42.82-.25,1.94-.66s1.49-.8,2.17-.68a1.67,1.67,0,0,1,.78.37A1.77,1.77,0,0,1,137.66,388.4Z" transform="translate(-99.33 -18.76)"/></svg>