<svg id="linkedin-icon" class="svg-icon" xmlns="http://www.w3.org/2000/svg" viewBox="0 0 512 512">
    <g id="linkedin">
        <path d="M511.59,511.46c-60.91-1.37-78.9-.33-105.63,0,0,0-.24-2.62-.24-2.62s0-.31,0-.33c0-.2.18-22.38.24-74.13.13-101.6,12.6-179.2-55-179.13-50.51.05-64,45-64.47,65.23V210.57c17-24.12,50.58-49.17,95.64-48.54C545.32,164.33,505.94,309.69,511.59,511.46Z" transform="translate(0.01 0.02)" />
        <path d="M125,62.47c.21,23.43-13.28,38.85-16.73,42.55-3.07,3.29-19.6,20.34-45.75,19.93-23.84-.38-39-15-43.17-19.19S.37,86.4,0,62.47C-.38,37.9,14.61,22,18.3,18.3,20.67,15.93,37.73-.62,62.47,0c23.23.58,38.19,13.81,42,17.4C109.41,22,124.72,37.78,125,62.47Z" transform="translate(0.01 0.02)" />
        <path d="M115.4,511.46H9.54V170.57H115.4V511.46Z" transform="translate(0.01 0.02)" />
        <path d="M287.46,511.46H181.72V170.57H287.46V511.46Z" transform="translate(0.01 0.02)" />
        <path d="M287.46,320.48V323C287.44,322.24,287.44,321.39,287.46,320.48Z" transform="translate(0.01 0.02)" />
    </g>
</svg>